<svg xmlns="http://www.w3.org/2000/svg" width="366.297" height="292.037" viewBox="0 0 96.916 77.268"><path d="M41.652 76.145c-.013-.904.443-3.92 1.013-6.703.57-2.783 1.218-6.33 1.438-7.882.22-1.552.622-4.25.895-5.997.69-4.417 1.031-9.257.622-8.82-.274.294-1.13 4.093-1.713 7.609-.373 2.245-.95 4.851-2.265 10.207l-1.991 8.114c-.773 3.155-.953 3.546-1.109 2.42-.07-.512.295-2.497.814-4.41 1.73-6.386 1.515-5.5 3.313-13.709.807-3.686 1.561-7.695 1.675-8.908l.208-2.204h3.859l-.21 1.499c-.251 1.789-.577 5.626-.725 8.555-.287 5.63-1.049 13.794-1.316 14.093-.376.422-.369-.292.061-5.803.19-2.425.433-5.997.541-7.937.109-1.94.271-3.925.361-4.41.48-2.582.582-5.292.2-5.292-.222 0-.404.091-.404.203 0 1.17-2.526 17.894-3.354 22.199a266.48 266.48 0 0 0-.89 4.938c-.579 3.435-.993 4.34-1.023 2.238zm14.644-.01c-.08-.255-.23-1.02-.334-1.698a42.257 42.257 0 0 0-.365-2.04c-.096-.442-.344-2.347-.55-4.233a138.52 138.52 0 0 0-.88-6.427c-.51-3.041-1.129-7.277-1.392-9.525-.08-.68-.256-1.672-.392-2.205-.145-.566-.105-.97.096-.97.19 0 .44.595.557 1.322.116.728.462 2.831.769 4.675l.908 5.468c.568 3.421 1.44 9.54 1.91 13.38.116.958.285 1.86.375 2.005.09.146 0 .365-.198.488s-.425.014-.504-.24zm-24.324-2.14c.295-1.018.856-2.566 1.247-3.439 1.105-2.467 1.258-2.883 1.72-4.674.236-.922.569-1.676.737-1.676.17 0 .307-.286.307-.635 0-1.044 4-12.947 4.59-13.658.175-.21.417-1.089.538-1.952l.22-1.57-.668.821c-.684.841-1.069 1.753-3.09 7.315-.639 1.759-1.655 4.252-2.258 5.542-.602 1.289-1.096 2.515-1.096 2.725 0 .638-1.445 3.26-1.671 3.033-.117-.117.117-.966.52-1.887.78-1.784 3.696-9.087 4.684-11.728.326-.874.685-1.826.797-2.117a42.36 42.36 0 0 0 .629-1.94c.621-2.062.811-2.194 2.885-2.02 1.022.087 1.89.186 1.93.22.04.035-.33 1.327-.823 2.872-.494 1.544-.952 3.126-1.018 3.514-.664 3.866-1.947 8.654-3.969 14.816a269.847 269.847 0 0 0-1.676 5.292c-.349 1.164-.768 2.268-.932 2.452-.526.593-.323-.808.42-2.902.98-2.755 2.628-8.572 4.571-16.13a689.253 689.253 0 0 1 1.75-6.66c.74-2.74.701-3.881-.086-2.51-.458.797-4.863 13.62-5.877 17.107-.733 2.519-2.773 8.238-3.682 10.319-.854 1.956-1.318 1.605-.7-.53zm-3.238.618c.408-1.729 3.078-7.938 3.412-7.938.462 0 .441.066-1.341 4.336-1.708 4.09-2.52 5.502-2.071 3.602zm30.04-6.535c-.95-3.884-1.64-7.148-1.535-7.254.336-.336 2.116 5.82 3.272 11.32.598 2.846.611 2.999.255 2.997-.146 0-1.042-3.179-1.992-7.063zm5.077 6.623c0-.048-.574-1.755-1.274-3.792-.7-2.038-1.4-4.26-1.556-4.94-.155-.678-1.417-4.545-2.802-8.593-1.386-4.048-2.435-7.444-2.332-7.547.103-.103.288.113.41.48.123.367.524 1.34.891 2.164.75 1.678 2.728 7.508 4.88 14.379 1.573 5.02 2.15 6.823 2.402 7.496.09.243-.012.441-.227.441s-.39-.04-.392-.088zm-38.804-.446c0-.1.134-.456.297-.793.164-.337.626-1.327 1.028-2.2 1.233-2.678 4.354-8.964 4.64-9.343.148-.198.63-1.268 1.07-2.378a45.63 45.63 0 0 1 1.796-3.88 188.568 188.568 0 0 0 2.24-4.381c2.219-4.494 2.102-5.97-.157-1.979-1.266 2.236-1.862 2.046-.704-.224.754-1.477.938-2.33.436-2.02-.356.22-5.808 8.208-8.72 12.775-2.636 4.133-3.34 5.08-3.782 5.08-.226 0-.225-.155.003-.441.192-.243.847-1.347 1.455-2.453.609-1.106 1.472-2.406 1.919-2.888.447-.482 1.804-2.434 3.016-4.338 1.212-1.905 2.849-4.383 3.638-5.507.79-1.125 1.346-2.135 1.236-2.244-.212-.213-1.596 1.168-2.462 2.454-.287.427-.613.688-.726.581-.112-.107.214-.783.725-1.5.51-.719.846-1.389.745-1.49-.184-.184-3.253 3.073-8.8 9.337-3.918 4.424-6.273 6.871-6.443 6.693-.129-.134 4.12-5.059 10.149-11.764 3.346-3.721 3.82-4.348 3.457-4.572-.325-.201-8.525 7.785-8.525 8.302a.3.3 0 0 1-.293.305c-.16 0-1.077.754-2.036 1.675-5.101 4.904-10.136 9.45-10.577 9.551-.931.213-.49-.461 1.344-2.054a208.943 208.943 0 0 0 7.474-6.88c.795-.776 3.574-3.45 6.175-5.941 3.525-3.378 4.604-4.607 4.24-4.832-.393-.243-.366-.347.143-.543.67-.257 5.807-.38 7.288-.175.485.067 1.159.005 1.497-.139 1.185-.503 1.119.858-.18 3.643a199.125 199.125 0 0 0-2.376 5.342c-.616 1.455-1.582 3.402-2.147 4.327-.565.924-1.027 1.781-1.027 1.905 0 .228-4.408 9.387-4.98 10.348a42.784 42.784 0 0 0-.908 1.676c-.511.988-1.168 1.531-1.168.965zm46.126-1.26c-.34-.597-.617-1.259-.617-1.47 0-.212-.227-.635-.504-.942-.277-.306-2.118-3.732-4.09-7.612s-3.715-7.214-3.874-7.409c-.159-.194-.84-1.384-1.515-2.645-.675-1.262-1.81-3.382-2.521-4.714-.712-1.33-1.214-2.5-1.115-2.599.098-.099.833-.17 1.633-.16 1.494.021 2.46.527 2.46 1.288 0 .237.337.733.747 1.103s1.231 1.386 1.823 2.26a41.638 41.638 0 0 0 2.34 3.063 86.663 86.663 0 0 1 2.675 3.34A897.12 897.12 0 0 0 72.055 61c1.116 1.45 2.028 2.783 2.028 2.961 0 .8-4.358-4.465-8.646-10.446-2.578-3.596-5.522-7.301-5.8-7.301-.488 0-.007 1.31.723 1.972.369.334.67.82.67 1.081s.14.475.31.475c.171 0 .495.445.72.989.225.543.76 1.385 1.19 1.87.875.99 1.201 1.477 2.737 4.08.592 1.002 1.306 2.014 1.587 2.247.282.234.512.55.512.702 0 .152.82 1.521 1.824 3.043 1.003 1.522 2.193 3.331 2.645 4.021.453.69.823 1.503.823 1.809 0 .305.235.75.522.988.69.573 1.656 2.534 1.378 2.798-.12.114-.399-.082-.619-.435-.22-.352-1.129-1.781-2.02-3.175-.891-1.393-2.058-3.327-2.593-4.297-.534-.97-1.172-2.002-1.417-2.293-.245-.291-.896-1.323-1.447-2.293-.551-.97-1.103-1.843-1.226-1.94-.315-.249-2.809-4.203-2.809-4.454 0-.114-.453-.786-1.007-1.493-.554-.707-1.072-1.444-1.151-1.638-.08-.194-.698-1.212-1.375-2.263-1.546-2.402-1.861-1.54-.365.999.592 1.003 1.076 1.88 1.076 1.949 0 .068.661 1.212 1.469 2.542 2.774 4.565 10.743 20.588 10.237 20.583-.133 0-.519-.49-.858-1.087zm-5.02-3.024c-1.13-2.515-1.735-3.9-2.209-5.06a104.22 104.22 0 0 0-1.16-2.646c-.439-.97-1.077-2.399-1.418-3.175a371.666 371.666 0 0 0-1.834-4.057c-1.816-3.959-2.765-6.437-2.548-6.654.107-.107.291.178.41.633.19.725.653 1.683 2.148 4.447.563 1.042 2.364 5.026 3.262 7.219.437 1.067 1.17 2.764 1.627 3.77.458 1.007.833 1.935.833 2.064 0 .128.228.733.507 1.344 1.021 2.24 1.615 3.87 1.464 4.021-.086.086-.572-.772-1.082-1.906zm-14.06-1.532c-.119-.873-.301-2.937-.406-4.586-.493-7.747-.717-10.91-1.084-15.258l-.26-3.087h3.05c2.988 0 3.051.018 3.051.85 0 .702-.136.815-.793.654-.437-.107-.978-.338-1.204-.513-.76-.593-.804.288-.126 2.57 1.3 4.375 2.848 10.649 2.672 10.825-.099.099-.246-.042-.327-.312-.081-.27-.421-1.444-.756-2.608-.335-1.165-.891-3.07-1.237-4.234a134.981 134.981 0 0 1-1.06-3.785c-.237-.918-.66-1.859-.939-2.09-.428-.356-.468-.266-.257.575.177.708.133.924-.154.746-.223-.137-.405-.488-.405-.779 0-.291-.168-.425-.373-.298-.206.127-.292.652-.193 1.167.099.515.284 2.92.41 5.346.127 2.426.278 4.49.336 4.586.058.097.21 2.233.34 4.747.128 2.514.296 4.67.371 4.793.076.122.007.685-.152 1.25-.279.993-.296.974-.504-.56zm-27.751.278c0-.533 1.225-3.013 1.972-3.993.468-.613.85-1.235.85-1.383 0-.147.476-.974 1.058-1.836.582-.862 1.059-1.655 1.059-1.76 0-.106.292-.614.649-1.13.357-.514 1.326-2.206 2.153-3.758 1.74-3.266 2.346-4.027 1.982-2.492-.134.57-.87 2.087-1.633 3.372-.763 1.285-1.388 2.512-1.388 2.727 0 .215-.138.444-.307.509-.17.064-.732.911-1.25 1.881-1.675 3.141-5.145 8.443-5.145 7.863zm51.858-1.71c0-.206.159-.276.353-.156.194.12.353.288.353.374 0 .086-.16.156-.353.156-.194 0-.353-.169-.353-.374zM7.232 63.5c.12-.194.377-.353.57-.353.195 0 .255.159.136.353-.12.194-.377.353-.571.353-.194 0-.255-.159-.135-.353zm72.036-2.028c-1.38-1.31-2.698-2.54-2.93-2.735-2.411-2.023-13.19-12.767-13.19-13.147 0-.276.975.506 2.168 1.737s2.618 2.57 3.166 2.975c1.173.866 13.113 12.465 13.495 13.11.575.969-.322.326-2.71-1.94zm3.923-1.059a641.278 641.278 0 0 0-5.01-3.969c-1.12-.873-2.46-1.956-2.978-2.407-.519-.451-2.213-1.794-3.766-2.985-1.552-1.19-3.032-2.369-3.288-2.62-.256-.25-.574-.458-.705-.462-.376-.013-3.003-2.462-2.828-2.637.085-.085 1.1.607 2.254 1.54a86.182 86.182 0 0 0 4.19 3.146c4.041 2.801 16.08 12.775 15.418 12.775-.172 0-1.651-1.071-3.287-2.38zm-72.983.963c.667-.57 1.281-.968 1.364-.885.206.206-1.784 1.93-2.223 1.925-.194-.002.193-.47.86-1.04zm11.622.096c.185-.34 1.312-1.73 2.504-3.087 1.192-1.358 2.515-3.064 2.94-3.79.424-.726.96-1.321 1.189-1.323.23 0 .512-.28.627-.62.299-.876 1.58-2.345 1.828-2.096.216.216-.09.652-3.474 4.93-3.405 4.306-5.378 6.603-5.67 6.603-.154 0-.128-.278.057-.617zm26.853-1.303c0-.302.16-.55.353-.55.194 0 .353.15.353.332 0 .183-.159.43-.353.55-.194.12-.353-.03-.353-.332zm-42.988-.636c.512-.438 1.703-1.242 2.646-1.788 6.37-3.692 8.644-5.086 11.542-7.079 3.965-2.726 7.93-5.158 8.41-5.158.194 0-.417.526-1.358 1.17-.941.642-2.981 2.088-4.534 3.212-1.552 1.124-3.536 2.424-4.41 2.888-.872.465-3.095 1.796-4.938 2.958-1.843 1.162-3.748 2.305-4.234 2.54-.485.235-1.278.687-1.763 1.004-.486.318-1.2.683-1.588.813-.559.186-.512.07.227-.56zm65.8-2.118c-6.266-6.923-9.759-11.02-9.759-11.447 0-.69.555-.553.916.227.175.377 1.748 2.257 3.494 4.178 6.765 7.44 8.87 9.952 8.34 9.952-.196 0-1.541-1.31-2.99-2.91zM12.7 59.25c.485-.384 1.477-1.182 2.205-1.772.727-.591 1.323-.935 1.323-.764 0 .417-3.519 3.26-4.016 3.245-.217-.007.003-.325.488-.71zm75.583.29c-.437-.21-.794-.517-.794-.681 0-.164-.181-.299-.402-.299-.221 0-1.69-.848-3.263-1.884a545.78 545.78 0 0 0-11.163-7.112c-2.912-1.793-5.689-3.766-5.528-3.927.085-.085 1.405.646 2.935 1.624 1.53.978 3.336 2.052 4.015 2.388.68.335 1.933 1.128 2.785 1.762.853.634 1.696 1.152 1.873 1.152.178 0 1.051.555 1.94 1.235.89.679 1.772 1.234 1.96 1.234.284 0 1.583.872 4.319 2.897.93.688 2.45 2.018 2.293 2.007-.097-.007-.534-.185-.97-.395zm-39.247-7.683c0-2.975.1-5.308.223-5.186.263.263.223 10.15-.042 10.415-.1.1-.18-2.254-.18-5.229zM16.597 56.18c.01-.146.914-.9 2.01-1.676a54.762 54.762 0 0 0 3.698-2.91c.94-.825 1.9-1.49 2.137-1.48.236.01-.036.368-.605.794-.569.426-1.861 1.488-2.872 2.361-3.44 2.97-4.413 3.619-4.368 2.91zm72.656-.265c-.512-.292-.66-.504-.353-.505.291 0 .837.232 1.214.516.871.66.298.652-.861-.01zM83.96 53.23c-1.843-.985-4.96-2.635-6.925-3.668a829.187 829.187 0 0 1-4.234-2.234c-.362-.197-1.412-.7-2.333-1.118-1.401-.638-2.457-1.406-1.932-1.406.406 0 7.228 3.253 10.132 4.832 1.844 1.002 4.066 2.157 4.94 2.567 2.405 1.13 3.392 1.715 3.878 2.3.724.873 0 .612-3.526-1.273zm9.758 1.233c-.55-.298-.93-.614-.842-.7.232-.233 1.912.458 2.183.897.32.516-.154.447-1.34-.197zm-4.113-1.786a124.758 124.758 0 0 0-4.647-2.042c-1.488-.617-3.076-1.392-3.528-1.723l-.821-.6.882.222c.898.225 3.355 1.28 6.526 2.803.97.465 2.2 1.008 2.734 1.205.534.197.97.52.97.72 0 .453.166.499-2.116-.585zm-76.024-1.37c.97-.467 2.002-.84 2.293-.826.291.012-.265.405-1.235.872-.97.468-2.002.84-2.293.827-.29-.013.265-.406 1.235-.873zm79.954-.558c-.652-.188-1.1-.426-.996-.53.27-.27 2.309.218 2.55.61.239.385.021.373-1.554-.08zm-76.417-1.11c.383-.25 2.68-1.386 5.106-2.523 2.425-1.137 5.107-2.469 5.96-2.959.96-.552 1.489-.71 1.39-.415-.19.574-11.47 6.312-12.456 6.336-.692.017-.692.015 0-.439zm74.074.104c-.12-.194.03-.353.332-.353.302 0 .55.159.55.353 0 .194-.15.352-.332.352-.183 0-.43-.158-.55-.352zm-66.146-.318c0-.308 2.273-1.799 2.741-1.799.313 0-2.142 2.084-2.476 2.102-.146.008-.265-.128-.265-.303zm-12.347-.8c.873-.392 2.699-1.077 4.057-1.522 1.358-.445 4.92-1.776 7.915-2.958 2.995-1.182 5.511-2.084 5.592-2.003.262.262-.308.898-.805.898-.445 0-3.43 1.142-6 2.295-.581.262-2.407.958-4.056 1.548-6.496 2.324-10.045 3.246-6.703 1.743zm42.317-.324c-.454-.848-.11-1.445.383-.665.346.547.453 1.401.175 1.401-.09 0-.341-.331-.558-.736zm31.88-.084c-.617-.228-1.239-.534-1.382-.68-.5-.508.75-.228 1.974.442 1.38.756 1.107.865-.592.238zm-7.875-.142c-.29-.11-1.525-.653-2.743-1.206-1.217-.554-2.416-1.007-2.663-1.007-.248 0-.6-.14-.785-.312-.184-.172-1.526-.719-2.981-1.215-1.587-.541-2.691-1.122-2.76-1.451-.063-.303-.008-.55.122-.55s2.324.933 4.877 2.072c2.552 1.14 5.037 2.19 5.522 2.335.485.145 1.12.462 1.411.704.291.243.767.53 1.059.636.47.173.47.195 0 .195a3.59 3.59 0 0 1-1.059-.2zm-72.32-.802c0-.194.169-.353.374-.353.206 0 .276.16.156.353-.12.194-.288.353-.374.353-.085 0-.155-.159-.155-.353zm1.06-.298c0-.209.674-.549 1.498-.755.825-.207 2.293-.598 3.264-.87.97-.271 2.637-.683 3.704-.915 1.067-.231 3.21-.78 4.762-1.218 3.872-1.095 5.373-1.389 4.94-.968-.305.296-5.5 1.872-7.85 2.382-1.962.426-7.383 1.84-9.525 2.486-.48.144-.794.088-.794-.142zm73.377-.82c-1.067-.392-2.417-.845-2.999-1.008-1.5-.418-4.137-1.355-4.762-1.692-.291-.157-2.077-.737-3.969-1.29-2.295-.671-3.44-1.175-3.44-1.514 0-.343.202-.429.618-.264.34.135 1.649.567 2.91.96 1.261.392 2.77.964 3.352 1.272.582.307 1.217.589 1.41.625.867.164 4.753 1.536 5.68 2.005.563.285 1.613.626 2.334.756.72.13 1.405.39 1.52.576.31.501-.477.375-2.654-.425zM.353 44.792c0-.275 1.767-.694 2.925-.694.396 0 .616.105.488.232-.341.342-3.413.758-3.413.462zm46.214.012c-.426-.275-.37-.343.285-.348.454-.003.718.151.597.348-.263.424-.226.424-.882 0zm37.747-.368c-1.067-.369-2.258-.678-2.646-.686-.852-.019-1.828-.587-1.526-.889.119-.12 1.305.098 2.635.483 1.33.385 2.855.795 3.389.91.534.116.97.366.97.556 0 .48-.573.404-2.822-.374zm-78.989-.489c.13-.13 2.112-.489 8.08-1.466.82-.134 1.116-.083.883.149-.195.193-2.065.602-4.156.91-3.9.573-5.072.672-4.807.407zm40.116-.403c-2.578-.52-3.395-1.036-3.74-2.364-.162-.626-.483-1.159-.713-1.183-.23-.024-.796-.064-1.258-.088-1.074-.057-1.809-1.646-1.335-2.89.18-.472 1.278-1.685 2.44-2.695 1.163-1.01 2.203-2.177 2.311-2.593.181-.692.096-.736-1.008-.529-.995.187-1.169.131-.996-.318.146-.381-.007-.544-.514-.544-.397 0-.82.159-.94.353-.12.194.024.352.32.352.352 0 .463.199.32.57-.173.453-.063.52.54.33.418-.133.76-.092.76.09 0 .354-1.652.774-3.043.774-1.289 0-.993-.702.309-.732l1.146-.027-1.234-.446c-.947-.341-1.235-.644-1.235-1.296 0-.607.222-.882.774-.96.506-.072.707-.286.58-.618-.219-.57.166-.65.896-.188.267.17.377.484.244.7-.139.224-.006.392.307.392.345 0 .55-.314.55-.843 0-.606-.249-.907-.882-1.065-.872-.22-1.246-.914-.491-.914.215 0 .3-.233.191-.519-.223-.581.631-1.598 1.343-1.598.255 0 .919-.236 1.475-.524.555-.289 1.295-.434 1.644-.324.35.11.865.01 1.147-.224.83-.69 8.51.54 11.356 1.816 1.649.74 2.227 1.169 2.083 1.546-.116.301.079.671.46.876.56.3.6.485.258 1.208-.325.69-.529.788-1.054.507-.359-.192-.858-.27-1.11-.173-.252.097-.618.017-.812-.177-.232-.232-.776-.237-1.576-.016-.768.212-1.443.213-1.817.004-.328-.183-.868-.275-1.202-.205-.334.07.265.41 1.334.754 1.863.601 3.81 1.824 3.461 2.173-.092.091-1.143-.23-2.336-.715-2.47-1.003-4.015-1.12-4.652-.352-.357.43-.342.53.076.53.284 0 1.486.483 2.67 1.075 2.51 1.255 6.203 5.111 5.246 5.478-.298.115-.81.057-1.14-.127-.382-.214-1.025-.203-1.784.03-1.496.46-1.966.04-.876-.782l.83-.626-1.23-.76c-.676-.419-1.312-.761-1.414-.761-.1 0-.286.549-.412 1.22-.41 2.184-3.451 3.657-5.403 2.617-1.103-.587-2.205-2.299-2.207-3.425 0-.504-.172-.765-.442-.673-.488.167-.57 2.112-.14 3.348.22.632.146.795-.365.799-.543.005-.56.058-.112.347.29.188.906.345 1.366.348.688.004.762.095.415.513-.35.423-.208.549.839.745.693.13 1.26.398 1.26.594 0 .21-.475.275-1.146.157-.835-.146-.955-.116-.441.11.388.17 1.338.413 2.112.54 1.314.216 1.362.264.726.73-.661.483-.659.497.093.497.425 0 .773.142.773.315 0 .386-1.124.335-3.595-.164zm.95-.857c-.98-.421-1.672-.421-1.412 0 .12.194.645.342 1.168.328.847-.022.873-.057.243-.328zm-3.705-5.094c0-.086-.159-.254-.353-.374-.194-.12-.352-.05-.352.156 0 .205.158.373.352.373.194 0 .353-.07.353-.155zm6.125-.374c.112-.291.069-.53-.096-.53-.164 0-.496.239-.737.53-.358.43-.34.53.095.53.294 0 .626-.239.738-.53zm-2.89-1.94c-.148-1.56-.25-1.72-.495-.78-.147.56.241 2.19.521 2.19.06 0 .049-.634-.025-1.41zm1.704-1.059c0-.194-.15-.352-.332-.352-.183 0-.43.158-.55.352-.12.194.03.353.332.353.302 0 .55-.159.55-.353zm1.167-3.127c.157-.026.196-.193.086-.37-.11-.178 0-.403.244-.502.244-.098-.372-.19-1.368-.206-1.465-.023-1.842.094-1.978.61-.143.548.042.63 1.282.578.797-.034 1.577-.083 1.734-.11zm1.302-2.164c0-.194-.326-.353-.726-.353-.4 0-.628.159-.508.353.12.194.446.353.726.353.28 0 .508-.16.508-.353zm.53 14.464c.12-.194.367-.353.55-.353.182 0 .332.159.332.353 0 .194-.248.352-.55.352-.303 0-.452-.158-.332-.352zm25.331-1.358c-2.805-.908-3.923-1.47-2.9-1.46 1.131.013 6.468 1.675 6.595 2.055.19.57-.378.479-3.695-.595zm-61.03.441c.425-.447 3.8-1.11 13.403-2.633 2.048-.325 2.705-.558 2.569-.913-.1-.262-.03-.476.159-.476.885 0 .206-.678-.805-.803-.882-.11-.76-.156.529-.2 1.853-.062 1.852-.064 1.252 1.595-.348.961-.608 1.172-1.449 1.172-.564 0-2.397.235-4.074.522l-10.81 1.855c-.582.1-.93.047-.773-.119zM0 40.857c0-.158.615-.288 1.367-.288s1.903-.1 2.558-.223c.81-.151 1.077-.107.838.138-.429.439-4.763.777-4.763.373zm29.81.065c.12-.194.447-.353.726-.353.28 0 .508.16.508.353 0 .194-.326.353-.726.353-.4 0-.628-.159-.508-.353zm40.09-.573a25.385 25.385 0 0 0-2.999-.676c-1.503-.22-2.297-.678-1.886-1.089.128-.128 1.07.022 2.093.333s2.457.67 3.187.796c1.3.226 1.95.665 1.413.953-.149.08-.962-.063-1.808-.317zm11.062.055c-5.62-1.212-14.156-2.61-16.14-2.646-.339-.006-.616-.26-.616-.564 0-.362.212-.488.617-.366.34.103 1.887.344 3.44.536 1.552.193 4.806.744 7.231 1.225 2.426.48 5.442 1.058 6.702 1.282 1.261.225 2.531.548 2.823.72.794.465-1.527.358-4.057-.187zm-75.67.068c.192-.21 4.051-.519 9.877-.79 2.55-.119 3.459-.066 2.916.168-.83.358-13.097.955-12.793.622zm14.11-.965c0-.192.437-.358.97-.37.534-.012 2.4-.08 4.146-.152 2.222-.092 2.751-.046 1.764.151-2.534.507-6.88.74-6.88.37zm-1.224-2.13c.264-.426 3.991-.358 4.261.078.1.16-.87.292-2.154.292-1.538 0-2.257-.126-2.107-.37zm5.553.126c.343-.09.82-.084 1.058.013.24.096-.042.17-.624.162-.582-.007-.777-.086-.434-.175zm63.023.103c-.08-.077-1.735-.236-3.675-.352-4.29-.258-8.625-.56-10.76-.75-.873-.078-3.294-.25-5.38-.384-2.085-.133-3.792-.367-3.792-.518 0-.28 6.643-.154 11.113.212 2.834.232 5.106.403 9.348.701 3.359.237 4.234.423 4.234.903 0 .324-.802.463-1.088.188zm1.727-.1c.255-.102.559-.09.676.028.117.117-.09.2-.463.185-.41-.017-.494-.1-.213-.213zm-82.748-.355c.34-.088.895-.088 1.234 0 .34.089.062.162-.617.162-.68 0-.957-.073-.617-.162zm5.468-.006a5.026 5.026 0 0 1 1.587 0c.437.084.08.153-.794.153-.873 0-1.23-.069-.793-.153zm4.255.008c.255-.102.559-.09.676.028.117.117-.09.2-.463.185-.41-.017-.494-.1-.213-.213zm13.119-.83l-7.056-.716c-2.425-.246-5.124-.476-5.997-.512-2.939-.122-5.997-.59-5.997-.918 0-.186.944-.238 2.205-.121 1.213.112 4.665.43 7.673.705 9.407.86 13.405 1.351 13.405 1.645 0 .313-.389.305-4.233-.084zm2.999-1.398l-1.059-.27 1.302-.041c.717-.023 1.4.117 1.52.311.245.396-.209.396-1.763 0zm5.291-.353c-.12-.194.02-.353.311-.353s.628.16.748.353c.12.194-.02.353-.312.353-.29 0-.627-.159-.747-.353zm26.018.095c-.77-.268-.476-.8.44-.8.486 0 .883.141.883.315 0 .406-.756.683-1.323.485zM25.4 34.012a913.402 913.402 0 0 0-4.586-.813c-6.032-1.046-10.513-1.904-11.289-2.16-1.785-.59 1.186-.376 5.167.372 6.892 1.296 9.083 1.69 11.766 2.116 2.89.459 4.455 1.046 2.646.992-.582-.017-2.249-.245-3.704-.507zm7.651-.02c-.21-.211-5.322-1.542-13.295-3.46-4.066-.98-7.11-1.941-7.585-2.398-.39-.375 1.508-.088 2.998.452.486.176 3.502.97 6.703 1.764 3.202.794 6.218 1.575 6.703 1.735.485.16 1.874.572 3.087.916 1.212.343 2.205.758 2.205.922 0 .35-.492.393-.816.07zm32.25-.099c1.964-.622 20.912-1.37 21.24-.839.201.326-1.505.419-18.102.99-2.425.084-3.687.023-3.138-.15zm-28.053-.331c-.104-.168.446-.305 1.223-.305.776 0 1.495.137 1.599.305.104.168-.447.305-1.223.305s-1.496-.137-1.6-.305zm24.018-.946c-.514-.715-.56-1.005-.221-1.412.3-.361.308-.512.029-.512-.75 0-.394-.998.679-1.9.591-.498 1.837-1.131 2.768-1.408.931-.276 2.595-.915 3.698-1.42 1.103-.504 2.12-.917 2.261-.917.141 0 1.634-.54 3.317-1.201 1.683-.66 3.587-1.302 4.23-1.425l1.172-.223-.882.534c-.485.293-1.701.847-2.702 1.23-1 .384-2.508 1.009-3.351 1.389-.843.38-2.603 1.024-3.912 1.432-3.1.967-6.263 2.422-6.263 2.881 0 .2.188.247.419.105.23-.143 1.222-.461 2.205-.709a55.562 55.562 0 0 0 3.902-1.19c3.543-1.238 6.88-2.048 7.084-1.718.106.171-.016.367-.27.435-1.526.409-9.06 2.714-11.223 3.435-4.682 1.559 1.03.623 10.76-1.762.775-.19 2.045-.432 2.821-.537.777-.105 2.306-.413 3.398-.686 1.093-.273 2.181-.375 2.419-.229.418.259-.03.384-5.64 1.58-1.261.27-4.04.88-6.174 1.357l-6.614 1.477c-1.504.336-2.734.75-2.734.922 0 .433.774.392 4.233-.221 2.612-.463 8.19-1.311 11.465-1.744.582-.077 2.25-.303 3.704-.502 4.979-.683 5.824-.786 7.762-.945a56.482 56.482 0 0 0 3.175-.35l1.234-.191-.994.537c-.548.295-1.103.51-1.235.478-.132-.032-.875.046-1.651.172-.776.127-2.205.32-3.175.429-.97.109-5.654.765-10.407 1.458-4.754.692-9.675 1.393-10.936 1.557-1.262.163-2.61.386-2.999.496-.495.14-.899-.07-1.352-.702zm26.576.545c0-.194.247-.353.55-.353.302 0 .452.16.332.353-.12.194-.368.353-.55.353-.183 0-.332-.159-.332-.353zm3.527 0c0-.194.169-.353.374-.353.206 0 .276.16.156.353-.12.194-.288.353-.374.353-.086 0-.156-.159-.156-.353zm2.176.044c-.309-.196.115-.366 1.235-.496.937-.108 1.856-.051 2.04.127.208.202.074.336-.353.354-.378.016-1.085.093-1.57.171-.485.078-1.093.008-1.352-.156zm-63.03-1.615c-4.386-1.54-4.253-1.485-4.055-1.704.098-.109 1.832.345 3.854 1.007 5.929 1.943 5.044 1.186-2.621-2.243-2.328-1.041-4.741-2.045-5.362-2.23a14.494 14.494 0 0 1-2.091-.837c-.53-.275-1.075-.43-1.213-.345-.137.085-.446-.082-.686-.371-.24-.289-.66-.525-.936-.525-.664 0-3.411-1.412-3.186-1.637.097-.097 1.264.244 2.592.758 1.329.514 3.05 1.172 3.826 1.462 1.491.557 2.027.797 7.98 3.582 2.06.964 4.322 1.96 5.026 2.216 1.347.487 1.733 1.484.724 1.871-.307.118-.585.191-.617.163-.033-.029-1.488-.554-3.235-1.167zm4.023-1.468c-.409-.493-.383-.553.193-.441.365.07.73.327.812.57.21.629-.445.545-1.005-.13zm-11.078-.833a498.226 498.226 0 0 1-6.174-1.951c-2.231-.72-4.533-1.432-5.115-1.582-1.793-.462-3.2-1.137-2.732-1.31.466-.173 15.893 4.742 16.473 5.248.479.418-.01.337-2.452-.405zm8.29-.592c-.873-.468-4.237-2.115-7.475-3.66-5.377-2.566-6.984-3.518-5.937-3.518.213 0 1.01.318 1.77.706.761.388 1.633.706 1.938.706.304 0 .645.238.757.529.112.29.365.529.562.529.596 0 10.502 5.057 10.502 5.362 0 .406-.334.303-2.117-.654zm.19-1.784c-1.933-1.096-3.317-2.058-3.075-2.139.242-.08.632.012.868.206.236.193 1.7 1.015 3.252 1.827 3.046 1.592 3.803 2.128 2.98 2.11-.28-.007-2.092-.909-4.025-2.004zm-23.473.737c-4.079-.907-5.292-1.277-5.292-1.614 0-.182.278-.253.617-.158.34.095 2.233.537 4.208.981 1.975.444 3.513.933 3.419 1.086-.205.33-.083.343-2.952-.295zm51.858.242c0-.354 1.83-1.279 8.82-4.454 6.566-2.983 11.641-5.048 11.641-4.737 0 .269-1.701 1.142-7.055 3.621-6.351 2.94-7.682 3.539-9.31 4.185-.948.377-2.055.917-2.46 1.2-.835.585-1.636.676-1.636.185zM33.69 25.995c-2.386-1.455-3.791-2.356-10.583-6.783-1.746-1.138-3.651-2.32-4.233-2.626-2.674-1.404-5.475-3.533-4.65-3.533.517 0 4.725 2.536 8.622 5.195 1.214.83 2.274 1.508 2.355 1.508.081 0 1.368.833 2.86 1.852a182.053 182.053 0 0 0 5.356 3.494c1.453.904 2.815 1.817 3.027 2.029.801.8-.37.318-2.754-1.136zm26.282.283c0-.301.278-.633.618-.738.653-.203.742-.248 3.896-1.97 3.016-1.649 4.223-2.261 7.128-3.62 1.455-.68 3.201-1.543 3.88-1.92 2.348-1.3 6.754-3.28 6.922-3.112.218.218-2.749 2.011-4.805 2.905-.873.38-3.94 1.915-6.815 3.412-2.876 1.497-5.574 2.827-5.997 2.956-.424.129-1.008.435-1.299.68-.291.246-1.204.786-2.028 1.2-1.267.637-1.5.67-1.5.207zm24.487.23c.103-.166 1.184-.495 2.402-.73 1.219-.237 2.573-.5 3.01-.587.436-.086.793-.02.793.148 0 .168-1.195.568-2.656.889-2.985.655-3.821.722-3.549.28zm-48.854-1.23c-1.507-.908-5.66-3.84-9.573-6.757-1.562-1.164-3.088-2.276-3.393-2.47-.304-.194-1.702-1.185-3.107-2.202-2.486-1.8-3.29-2.56-2.708-2.56.473 0 4.401 2.542 6.466 4.183 3.775 3.001 4.177 3.311 5.032 3.882a176.263 176.263 0 0 1 6.119 4.282c1.193.873 2.465 1.777 2.826 2.008 1.223.782-.322.443-1.662-.365zm40.789.525c.299-.269 3.652-1.245 11.271-3.281 1.358-.363 2.787-.755 3.175-.871.502-.15.6-.1.342.174-.2.212-1.866.792-3.704 1.288-1.837.496-3.817 1.066-4.399 1.267-3.854 1.33-7.425 2.09-6.685 1.423zm-17.035-1c.328-.327.715-.477.86-.333.144.145.028.41-.257.591-.859.543-1.24.38-.603-.257zm-24.552-2.095c-1.715-1.286-3.47-2.676-3.902-3.087-.431-.411-1.076-.914-1.434-1.117-.357-.203-.586-.557-.508-.787.081-.24 1.336.552 2.963 1.873 1.553 1.259 3.66 2.851 4.685 3.538 1.024.686 1.769 1.4 1.655 1.584-.114.184-.238.335-.275.335-.037 0-1.47-1.052-3.184-2.339zm-9.583.545c-1.359-.747-2.867-1.533-3.352-1.747-.485-.214-1.676-.915-2.646-1.56-.97-.643-3.034-1.842-4.586-2.663-1.552-.822-3.06-1.732-3.351-2.024-.939-.94 1.185-.216 3.64 1.242 3.319 1.97 4.148 2.442 5.885 3.346 3.677 1.913 6.28 3.48 6.879 4.141.89.984.381.833-2.47-.735zm-18.521.676c-1.57-.443-2.385-1.195-.921-.849 1.38.327 3.343 1.205 2.685 1.201-.291-.002-1.085-.16-1.764-.352zm50.8-.04c0-.248.436-.639.97-.868.533-.23 1.208-.582 1.5-.782 1.193-.823 5.225-3.241 6.79-4.074 3.234-1.72 1.633-.237-2.47 2.287-2.28 1.403-4.575 2.852-5.1 3.22-1.113.78-1.69.854-1.69.218zm3.175.28c0-.096.833-.665 1.852-1.266 6.006-3.541 7.135-4.155 7.306-3.972.105.11-.107.382-.47.601a41.37 41.37 0 0 0-1.763 1.173c-.608.425-1.786 1.093-2.62 1.486-.832.392-1.968 1.037-2.523 1.432-.951.677-1.782.932-1.782.545zm-24.975-2.914a1253.98 1253.98 0 0 0-6.372-5.38c-1.968-1.65-3.578-3.123-3.578-3.276 0-.47 1.135.315 3.554 2.457 1.275 1.13 3.934 3.38 5.909 5.002 3.084 2.533 4.088 3.578 3.436 3.578-.085 0-1.412-1.071-2.949-2.381zm-23.885.927c-3.058-1.172-4.41-1.819-4.41-2.108 0-.314 3.002.668 5.027 1.644.728.35 1.323.767 1.323.925 0 .158-.04.271-.088.251-.048-.02-.882-.34-1.852-.712zm44.627.484c0-.226 1.713-1.457 3.816-2.744.326-.2 1.704-1.107 3.063-2.016 5.354-3.585 6.414-4.287 8.113-5.373.97-.62 3.012-1.956 4.538-2.97 1.525-1.012 2.873-1.74 2.995-1.619.123.123-.06.38-.404.573-.345.193-3.042 2.003-5.994 4.022C57.707 22.707 56.443 23.5 56.445 22.666zm-17.551-.695c-.243-.087-.441-.416-.441-.733 0-.524.053-.522.596.021.638.638.566.97-.155.712zm40.657-.099c.12-.194.377-.353.571-.353.194 0 .255.16.135.353-.12.194-.377.353-.57.353-.195 0-.256-.159-.136-.353zm-63.676-1.124c-.873-.398-1.39-.796-1.147-.887.398-.148 2.91 1.156 2.91 1.51 0 .189.097.223-1.763-.623zm40.048.432c-.15-.243 5.904-4.952 6.366-4.952.1 0 .374-.163.609-.363.435-.37 4.87-3.6 6.776-4.936.582-.407 2.17-1.54 3.527-2.517 3.17-2.28 4.206-2.82 2.823-1.473-2.612 2.543-19.803 14.722-20.1 14.24zm25.569-.013c0-.194.247-.353.55-.353.302 0 .452.159.332.353-.12.194-.368.352-.55.352-.183 0-.332-.158-.332-.352zm-42.47-1.108c-.29-.415-1.57-1.824-2.842-3.13-1.272-1.307-2.313-2.485-2.313-2.62 0-.133-.834-1.011-1.852-1.95-1.02-.94-1.725-1.837-1.569-1.996.268-.272 2.253 1.51 5.13 4.608.709.763 2.138 2.222 3.175 3.242s1.782 2.022 1.655 2.227c-.354.573-.802.45-1.384-.381zm-5.515-2.861c-2.005-1.795-3.72-3.494-3.812-3.775-.092-.282 1.486.928 3.508 2.688 3.898 3.393 4.842 4.35 4.29 4.35-.188 0-1.982-1.468-3.986-3.263zm21.374 2.597c-.223-.36 1.999-2.156 2.667-2.156.245 0-.093.556-.75 1.235-1.245 1.283-1.59 1.45-1.917.92zM11.465 18.8c-1.974-.984-2.128-1.092-1.891-1.329.194-.194 4.537 1.808 4.537 2.092 0 .368-.896.11-2.646-.763zm75.495.249c.12-.194.566-.35.99-.347.629.004.675.069.244.347-.695.45-1.512.45-1.234 0zm-48.622-2.826c-1.295-1.554-2.355-3.02-2.355-3.26 0-.238.426.041.947.622.52.58 1.71 1.878 2.646 2.885 1.604 1.729 2.068 2.579 1.408 2.579-.16 0-1.35-1.272-2.646-2.826zm15.637 1.95c0-.597 2.716-2.523 3.065-2.174.228.229-2.304 2.655-2.8 2.683-.146.008-.265-.222-.265-.51zm16.58.228c0-.162.913-.748 2.029-1.302 1.116-.554 3.107-1.651 4.424-2.439 3.59-2.146 5.287-3.039 5.456-2.87.192.192-2.725 2.32-3.179 2.32-.185 0-1.043.476-1.905 1.058-.862.583-1.689 1.059-1.836 1.059-.147 0-1.19.555-2.318 1.235-2.092 1.26-2.67 1.463-2.67.94zm-43.82-2.109a35.83 35.83 0 0 0-2.367-1.831c-.68-.472-1.018-.902-.775-.983.518-.173 2.709 1.297 4.106 2.755 1.278 1.333.574 1.377-.964.06zm12.437-1.812c-1.213-1.543-2.313-2.853-2.443-2.91-.517-.23-4.97-6.054-4.775-6.248.113-.113.436.11.716.498.28.388 1.18 1.424 2 2.303a87.53 87.53 0 0 1 2.9 3.308c.777.94 1.65 1.956 1.941 2.257 1.012 1.047 2.47 2.99 2.47 3.293 0 .776-.775.087-2.81-2.501zm19.215 2.45c.24-.388 9.24-7.182 10.895-8.225l1.02-.642L69.163 9.5c-.625.79-1.263 1.436-1.416 1.436-.334 0-5.265 3.54-7.222 5.185-1.303 1.095-2.625 1.595-2.14.81zm11.993-.87c.97-.673 1.922-1.355 2.116-1.514.194-.16 1.384-.905 2.646-1.657 1.26-.751 2.899-1.746 3.64-2.21.741-.465 1.51-.79 1.707-.725.36.12-4.607 3.542-5.81 4.004-.353.134-1.675.938-2.939 1.786-1.264.848-2.484 1.541-2.71 1.541-.227 0 .38-.551 1.35-1.225zm-17.11.561c0-.17.59-.76 1.31-1.31.72-.55 1.571-1.243 1.89-1.541.32-.298 1.184-1.018 1.922-1.6.738-.582 2.049-1.662 2.913-2.399.865-.737 1.65-1.262 1.745-1.167.271.27-1.906 2.31-5.459 5.112-1.795 1.415-3.263 2.718-3.263 2.895 0 .177-.238.321-.53.321-.29 0-.529-.14-.529-.31zm-1.059-1.429c0-.18.516-.688 1.147-1.128.63-.44 1.273-1.007 1.428-1.26.155-.251.552-.454.882-.45.412.006.081.504-1.055 1.588-1.595 1.522-2.402 1.942-2.402 1.25zm5.645.066c0-.157.336-.52.747-.805.41-.286 1.461-1.154 2.335-1.93 1.907-1.694 2.537-2.084 2.853-1.765.26.263-.735 1.12-3.878 3.337-1.132.798-2.057 1.321-2.057 1.163zm-18.3-3.454c-1.4-1.85-2.636-3.597-2.745-3.88-.38-.992.444-.505 1.71 1.01 1.55 1.855 4.269 6.234 3.87 6.234-.16 0-1.435-1.514-2.835-3.364zm43.347 2.844c0-.178 1.949-1.243 2.275-1.243.643 0 .018.698-.917 1.023-1.254.438-1.358.454-1.358.22zm-41.452-3.4c-.97-1.57-2.399-3.84-3.175-5.046-2.067-3.21-2.725-4.44-2.373-4.44.475 0 7.841 11.41 7.841 12.146 0 .706-.754-.17-2.293-2.66zm9.55 2.548c-.108-.173.224-.589.736-.924.513-.336 2.796-2.338 5.075-4.449 2.279-2.11 4.264-3.838 4.412-3.838.148 0 .873-.635 1.61-1.411 1.134-1.19 2.077-1.775 2.077-1.286 0 .294-1.867 2.091-5.138 4.945-1.928 1.682-4.48 4.007-5.674 5.167-2.137 2.08-2.716 2.415-3.099 1.796zm-.73-1.097c-.171-.277.358-1.04 1.453-2.093a71.635 71.635 0 0 0 3.486-3.675c1.741-1.991 3.351-3.331 3.351-2.789 0 .154-.675.992-1.5 1.863a346.66 346.66 0 0 0-4.01 4.357c-1.704 1.882-2.598 2.632-2.78 2.337zm-22.727-1.085c-.597-.597-1.086-1.265-1.086-1.483 0-.219.635.223 1.411.98.777.758 1.412 1.426 1.412 1.483 0 .4-.82-.064-1.737-.98zm4.22-2.41c-3.283-3.42-3.93-4.266-3.265-4.266.406 0 5.227 5.009 6.366 6.614 1.478 2.083.284 1.179-3.101-2.348zm12.343 2.574c-.2-.56-.522-1.295-.715-1.632-.43-.746-.478-1.963-.059-1.486.483.55 1.561 3.713 1.34 3.933-.112.112-.367-.255-.566-.815zm14.63-2.091c2.686-2.488 3.705-3.22 3.705-2.662 0 .427-5.33 4.964-5.821 4.955-.194-.003.758-1.035 2.116-2.293zM49.39 11.43c0-.193 2.983-4.282 5.218-7.152 1.574-2.022 1.28-.528-.339 1.722-2.925 4.066-4.192 5.642-4.535 5.642-.19 0-.344-.095-.344-.212zm-3.968-1.08c-.643-1.135-2.11-9.023-1.82-9.782.423-1.1.754-.546.98 1.637.125 1.213.533 3.475.906 5.027s.549 2.955.39 3.117c-.16.163-.364.163-.456 0zm-20.197-.825c-.12-.194-.05-.353.155-.353.206 0 .374.159.374.353 0 .194-.07.353-.156.353-.085 0-.253-.159-.373-.353zm2.69-1.293c-1.128-1.32-1.234-1.714-.36-1.33.866.379 2.562 2.623 1.983 2.623-.286 0-1.016-.582-1.624-1.293zm21.64.587c.696-2.505 3.363-6.662 3.363-5.24 0 .282-.146.664-.324.848-.178.185-.834 1.288-1.459 2.452-1.332 2.485-1.937 3.228-1.58 1.94zm-2.767-.19c-.121-.315-.22-2.16-.22-4.101 0-2.666.107-3.492.44-3.38.328.109.41 1.14.318 3.997-.068 2.118-.167 3.897-.22 3.954-.054.057-.197-.154-.318-.47zM41.81 5.916c-.538-1.216-1.276-2.878-1.639-3.692C39.44.584 39.351 0 39.833 0c.177 0 .745 1.15 1.261 2.558a118.48 118.48 0 0 0 1.497 3.884c.96 2.282.25 1.804-.78-.526zm6.52 1.227c0-1.167 1.008-4.767 1.451-5.184.431-.405.348.318-.404 3.51-.459 1.948-1.046 2.889-1.046 1.674zm-12.415-.528c-.306-.243-1.1-1.235-1.764-2.205-1.674-2.445-1.78-2.646-1.415-2.646.178 0 1.02.982 1.873 2.181 2.317 3.26 2.486 3.605 1.306 2.67zm28.643-2.029c0-.194.16-.353.353-.353.194 0 .353.16.353.353a.354.354 0 0 1-.353.353.354.354 0 0 1-.353-.353zm1.411-1.015c0-.339 1.18-1.454 1.54-1.454.137 0 .09.298-.106.664-.374.698-1.434 1.282-1.434.79zm-6.702-.749c0-.194.168-.353.373-.353.206 0 .276.16.156.353-.12.194-.288.353-.374.353-.085 0-.155-.159-.155-.353z"/></svg>